<svg version="1.2" baseProfile="tiny-ps" xmlns="http://www.w3.org/2000/svg" viewBox="0 0 40 40" width="40" height="40">
	<title>trash-svg</title>
	<style>
		tspan { white-space:pre }
		.shp0 { fill: #000000 } 
	</style>
	<g id="Layer">
		<path id="Layer" fill-rule="evenodd" class="shp0" d="M33.48 12.65L33.48 34.7C33.48 37.4 31.28 39.6 28.58 39.6L11.42 39.6C8.72 39.6 6.52 37.4 6.52 34.7L6.52 12.65C5.17 12.65 4.07 11.55 4.07 10.2L4.07 7.75C4.07 6.4 5.17 5.3 6.52 5.3L13.87 5.3L13.87 2.85C13.87 1.5 14.97 0.4 16.32 0.4L23.67 0.4C25.02 0.4 26.12 1.5 26.12 2.85L26.12 5.3L33.47 5.3C34.82 5.3 35.92 6.39 35.92 7.74L35.92 10.2C35.92 11.55 34.83 12.65 33.48 12.65ZM8.39 12.65L8.39 35.33C8.39 36.68 9.44 37.78 10.8 37.78L29.2 37.78C30.56 37.78 31.66 36.68 31.66 35.33L31.66 12.65C30.28 12.65 10.08 12.65 8.39 12.65ZM24.3 5.3L24.3 3.44C24.3 2.77 23.76 2.22 23.08 2.22L16.92 2.22C16.24 2.22 15.7 2.77 15.7 3.44L15.7 5.3C15.7 5.3 23.12 5.3 24.3 5.3ZM32.88 7.12L7.12 7.12C6.44 7.12 5.9 8.16 5.9 8.97C5.9 9.78 6.44 10.82 7.12 10.82L32.88 10.82C33.56 10.82 34.1 9.78 34.1 8.97C34.1 8.16 33.56 7.12 32.88 7.12ZM15.24 17.55C15.74 17.55 16.15 18.1 16.15 18.77L16.15 33.47C16.15 34.15 15.74 34.7 15.24 34.7C14.73 34.7 14.32 34.15 14.32 33.47L14.32 18.78C14.32 18.1 14.73 17.55 15.24 17.55ZM20.13 17.55C20.64 17.55 21.04 18.1 21.04 18.77L21.04 33.47C21.04 34.15 20.63 34.7 20.13 34.7C19.63 34.7 19.22 34.15 19.22 33.47L19.22 18.78C19.22 18.1 19.63 17.55 20.13 17.55ZM25.03 17.55C25.53 17.55 25.94 18.1 25.94 18.77L25.94 33.47C25.94 34.15 25.53 34.7 25.03 34.7C24.53 34.7 24.12 34.15 24.12 33.47L24.12 18.78C24.12 18.1 24.53 17.55 25.03 17.55Z" />
	</g>
</svg>